<svg xmlns="http://www.w3.org/2000/svg" width="1200" height="630" viewBox="0 0 1200 630">
  <rect width="1200" height="630" fill="#F7FAFA"/>
  <rect x="820" width="380" height="630" fill="#007A82"/>
  <g transform="translate(70 58)">
    <rect x="0" y="7" width="9" height="28" rx="3" fill="#13191A"/>
    <rect x="51" y="7" width="9" height="28" rx="3" fill="#13191A"/>
    <path d="M9 17h14v8H9zm28 0h14v8H37z" fill="#13191A"/>
    <circle cx="30" cy="21" r="8" fill="#EED430" stroke="#13191A" stroke-width="4"/>
    <text x="78" y="31" fill="#13191A" font-family="Arial" font-size="28" font-weight="700">hevy mcp</text>
  </g>
  <text x="70" y="240" fill="#13191A" font-family="Arial" font-size="80" font-weight="700" letter-spacing="-3">
    <tspan x="70">Ask your training log</tspan>
    <tspan x="70" dy="86" fill="#007A82">better questions.</tspan>
  </text>
  <text x="72" y="405" fill="#526164" font-family="Arial" font-size="30">25 tools · Hosted HTTPS or local stdio · Open source</text>
  <g transform="translate(860 108)">
    <rect width="310" height="414" rx="16" fill="#0B2023"/>
    <rect x="20" y="22" width="142" height="8" rx="4" fill="#EED430"/>
    <rect x="70" y="67" width="218" height="78" rx="11" fill="#122A2D"/>
    <rect x="22" y="177" width="245" height="12" rx="6" fill="#FFFFFF" opacity=".94"/>
    <rect x="22" y="202" width="204" height="12" rx="6" fill="#FFFFFF" opacity=".54"/>
    <rect x="22" y="244" width="270" height="48" rx="8" fill="#294246"/>
    <circle cx="43" cy="268" r="7" fill="#EED430"/>
    <rect x="59" y="261" width="164" height="10" rx="5" fill="#FFFFFF" opacity=".78"/>
    <rect x="22" y="329" width="248" height="10" rx="5" fill="#FFFFFF" opacity=".75"/>
    <rect x="22" y="351" width="198" height="10" rx="5" fill="#FFFFFF" opacity=".42"/>
    <rect x="22" y="383" width="74" height="20" rx="10" fill="none" stroke="#A7B8BA"/>
    <rect x="105" y="383" width="67" height="20" rx="10" fill="none" stroke="#A7B8BA"/>
  </g>
</svg>
