<svg xmlns="http://www.w3.org/2000/svg" width="1200" height="630" viewBox="0 0 1200 630">
  <rect width="1200" height="630" fill="#ffffff"/>
  <rect x="760" width="440" height="630" fill="#5aafc0"/>
  <g transform="translate(70 58)">
    <rect x="0" y="7" width="9" height="28" rx="3" fill="#151d21"/>
    <rect x="51" y="7" width="9" height="28" rx="3" fill="#151d21"/>
    <path d="M9 17h14v8H9zm28 0h14v8H37z" fill="#151d21"/>
    <circle cx="30" cy="21" r="8" fill="#d8e839" stroke="#151d21" stroke-width="4"/>
    <text x="78" y="31" fill="#151d21" font-family="Arial" font-size="28" font-weight="700">hevy mcp</text>
  </g>
  <text x="70" y="240" fill="#151d21" font-family="Arial" font-size="80" font-weight="700" letter-spacing="-3">
    <tspan x="70">Ask your training log</tspan>
    <tspan x="70" dy="86" fill="#265f6a">better questions.</tspan>
  </text>
  <text x="72" y="405" fill="#526169" font-family="Arial" font-size="25">25 tools · Hosted HTTPS or local stdio · Open source</text>
  <g transform="translate(815 108)">
    <rect width="310" height="414" rx="16" fill="#151d21"/>
    <rect x="20" y="22" width="142" height="8" rx="4" fill="#d8e839"/>
    <rect x="70" y="67" width="218" height="78" rx="11" fill="#283337"/>
    <rect x="22" y="177" width="245" height="12" rx="6" fill="#ffffff" opacity=".94"/>
    <rect x="22" y="202" width="204" height="12" rx="6" fill="#ffffff" opacity=".54"/>
    <rect x="22" y="244" width="270" height="48" rx="8" fill="#234652"/>
    <circle cx="43" cy="268" r="7" fill="#d8e839"/>
    <rect x="59" y="261" width="164" height="10" rx="5" fill="#ffffff" opacity=".78"/>
    <rect x="22" y="329" width="248" height="10" rx="5" fill="#ffffff" opacity=".75"/>
    <rect x="22" y="351" width="198" height="10" rx="5" fill="#ffffff" opacity=".42"/>
    <rect x="22" y="383" width="74" height="20" rx="10" fill="none" stroke="#8ca1aa"/>
    <rect x="105" y="383" width="67" height="20" rx="10" fill="none" stroke="#8ca1aa"/>
  </g>
</svg>
